<svg id="Icons" height="512" viewBox="0 0 74 74" width="512" xmlns="http://www.w3.org/2000/svg"><path d="m8.982 58.923a6.978 6.978 0 1 1 2.439-13.511 10.384 10.384 0 0 1 20.179 1.577 6.021 6.021 0 1 1 1.581 11.832zm0-11.956a4.978 4.978 0 1 0 0 9.956l24.2-.1a4.022 4.022 0 1 0 -1.982-7.523 1 1 0 0 1 -1.487-.863 8.384 8.384 0 0 0 -16.633-1.412 1 1 0 0 1 -1.5.676 4.94 4.94 0 0 0 -2.601-.734z"/><path d="m18.331 29.033a4.8 4.8 0 1 1 1.322-9.421 6.973 6.973 0 0 1 13.362 1.027 4.186 4.186 0 0 1 4.9 4.133 4.2 4.2 0 0 1 -4.19 4.2zm0-7.609a2.8 2.8 0 0 0 0 5.609l15.4-.065a2.2 2.2 0 1 0 -1.079-4.105 1 1 0 0 1 -1.494-.863 4.971 4.971 0 0 0 -9.863-.837 1 1 0 0 1 -1.5.675 2.778 2.778 0 0 0 -1.468-.414z"/><path d="m44.763 35.812h-13.263a1 1 0 1 1 0-2h13.263a3.217 3.217 0 0 0 0-6.434 1 1 0 1 1 0-2 5.217 5.217 0 0 1 0 10.434z"/><path d="m52.462 49.163a1 1 0 0 1 0-2 3.217 3.217 0 0 0 0-6.434h-18.414a1 1 0 0 1 0-2h18.414a5.217 5.217 0 0 1 0 10.434z"/><path d="m67.184 36.666h-14.348a1 1 0 0 1 0-2h14.348a2.817 2.817 0 0 0 0-5.633 1 1 0 0 1 0-2 4.817 4.817 0 0 1 0 9.633z"/></svg>